<svg width="34" height="26" viewBox="0 0 34 26" fill="none" xmlns="http://www.w3.org/2000/svg">
<path fill-rule="evenodd" clip-rule="evenodd" d="M33.6414 18.7883L33.1044 15.6882C32.9818 14.9835 32.4294 14.4406 31.727 14.3061C30.4365 14.062 28.4782 13.3203 28.0877 11.0751C27.6996 8.82742 29.2937 7.47026 30.427 6.80596C31.0449 6.44405 31.3818 5.74642 31.2592 5.04165L30.7223 1.94161C30.5627 1.01778 29.683 0.398726 28.758 0.558252L14.2673 3.069L1.74208 5.23927C0.818257 5.39999 0.198009 6.27858 0.358726 7.2024L0.895639 10.3024C1.01826 11.0084 1.57065 11.5513 2.27304 11.6834C3.56353 11.9287 5.5219 12.6691 5.91119 14.9168C6.30048 17.1633 4.70641 18.5204 3.57306 19.1847C2.95519 19.5478 2.61828 20.2443 2.7409 20.949L3.27782 24.0491C3.43734 24.9729 4.31712 25.5931 5.24094 25.4336L32.258 20.7514C33.1818 20.5931 33.8021 19.7109 33.6414 18.7883Z" fill="#66CEE6"/>
<path fill-rule="evenodd" clip-rule="evenodd" d="M17.4163 16.8523C17.1258 16.8523 16.8353 16.7416 16.6127 16.5202C16.1687 16.0761 16.1699 15.3559 16.6139 14.9118L22.9247 8.60934C23.3688 8.16648 24.0878 8.16648 24.5319 8.61053C24.9759 9.05459 24.9747 9.77484 24.5307 10.2189L18.2199 16.5214C17.9973 16.7416 17.708 16.8523 17.4163 16.8523Z" fill="#B3E7F3"/>
<path fill-rule="evenodd" clip-rule="evenodd" d="M17.4092 16.8527C17.1187 16.8527 16.8283 16.7419 16.6056 16.5205L13.0996 13.0145C12.6556 12.5705 12.6556 11.8514 13.0996 11.4073C13.5437 10.9645 14.2628 10.9645 14.7056 11.4073L18.2128 14.9133C18.6569 15.3562 18.6569 16.0777 18.2128 16.5205C17.9902 16.7419 17.6997 16.8527 17.4092 16.8527Z" fill="#B3E7F3"/>
<path fill-rule="evenodd" clip-rule="evenodd" d="M9.58502 19.7939C9.21358 19.8581 8.8612 19.6093 8.7981 19.2379L8.68143 18.5676C8.61715 18.1962 8.86596 17.8438 9.2362 17.7795C9.60764 17.7153 9.95883 17.9641 10.0231 18.3343L10.1398 19.0057C10.2041 19.376 9.95645 19.7284 9.58502 19.7939ZM10.2161 23.4404C9.84585 23.5047 9.49347 23.2559 9.42918 22.8857L9.31251 22.2142C9.24942 21.844 9.49704 21.4904 9.86728 21.4273C10.2387 21.3618 10.5923 21.6106 10.6542 21.9821L10.7721 22.6523C10.8363 23.0237 10.5875 23.3773 10.2161 23.4404ZM8.88645 15.7654C8.5174 15.8308 8.16501 15.582 8.09954 15.2106L7.98287 14.5403C7.91977 14.1689 8.16739 13.8165 8.53764 13.7534C8.90907 13.6891 9.26265 13.9368 9.32574 14.3082L9.44241 14.9784C9.5067 15.3499 9.25789 15.7023 8.88645 15.7654ZM8.18871 11.739C7.81966 11.8033 7.46608 11.5545 7.4018 11.1843L7.28513 10.5128C7.22084 10.1426 7.46965 9.7902 7.8399 9.72472C8.21133 9.66043 8.56372 9.90925 8.62801 10.2807L8.74467 10.9509C8.80777 11.3224 8.56015 11.6748 8.18871 11.739ZM7.49104 7.71163C7.12079 7.77592 6.76841 7.52711 6.70293 7.15686L6.58745 6.48542C6.52436 6.11518 6.77198 5.76279 7.14222 5.69731C7.51366 5.63422 7.86604 5.88184 7.92914 6.25328L8.04581 6.92352C8.11129 7.29496 7.86247 7.64735 7.49104 7.71163Z" fill="#00AFDA"/>
</svg>
